<svg xmlns="http://www.w3.org/2000/svg" height="56" viewBox="0 0 344 56" width="344" version="1.1" fill="#005789">
<path id="logo" d="m34 17.9c-.4-5.3-4.8-12.7-15.5-12.7-9.2 0-16.5 6.4-16.5 19 0 12.4 6.9 18.8 16.4 18.8 9 0 14.1-5.4 15.6-13.2h-7.5c-.9 4.4-3.8 6.8-8 6.8-6.3 0-8.9-5.8-8.9-12.2 0-10.2 5.3-12.6 8.9-12.6 6.2 0 7.4 4.1 8 6.2h7.5zm26.2-2.5h-7v15.4c0 4.8-3.1 6-5.4 6-2.1 0-4.5-.8-4.5-4.9v-16.5h-7v17.5c0 6.8 3.8 9.8 9 9.8 3.7 0 6.5-1.6 8.1-4.4h0.1v3.8h6.7v-26.7zm3.5 26.6h7v-13.9c0-2.9 1-6.3 6.5-6.3 .6 0 1.4 0 2 .1v-7.1c-.5 0-.9-.1-1.4-.1-4.2 0-5.9 2.6-7.3 5.3h-.1v-4.6h-6.7v26.6zm17.9 0h7v-13.9c0-2.9 1-6.3 6.4-6.3 .7 0 1.4 0 2 .1v-7.1c-.4 0-.9-.1-1.3-.1-4.2 0-5.9 2.6-7.3 5.3h-.1v-4.6h-6.7v26.6zm34.2-7.8c-.5 1.9-2.5 2.9-4.5 2.9-5.6 0-6-4.5-6.2-6.5h18.2v-1.2c0-12.2-7.2-14.7-12.5-14.7-11.6 0-12.8 10.2-12.8 13.4 0 11 5.8 14.6 13.2 14.6 4.5 0 9.9-2.1 11.7-8.5h-7.1zm-10.6-8.2c0.4-3.5 2.1-5.6 5.4-5.6 2.2 0 5 1.3 5.4 5.6h-10.8zm43.8-2.4c0-5.8-4.1-8.9-9.2-8.9s-7.1 3-8 4.6h-.1v-3.9h-6.7v26.6h7v-15.2c0-4.1 2.4-6.2 5.5-6.2 4.5 0 4.6 3.3 4.6 5.2v16.2h7v-18.4zm11.3-15.4h-7v7.2h-3.6v5h3.6v16.2c0 3.5 1.1 5.8 7.2 5.8h0.9c1.1 0 2.2 0 3.3-.1v-5.3c-.5 .1-1 .1-1.4 .1-2.9 0-2.9-.6-2.9-2.2v-14.5h4.4v-5h-4.4v-7.2zm17.3 33.8h15.2c7.4 0 9.3-1.2 11.4-3.2 1.9-1.9 3.1-4.6 3.1-7.4 0-3.6-1.2-7.1-5.6-8.7 1.5-.8 4.4-2.2 4.4-7.3 0-3.7-2.2-9.2-11-9.2h-17.5v35.8zm7.2-15.8h9.5c2.7 0 5.4 1.2 5.4 4.3 0 3.7-2.1 5.2-5.8 5.2h-9.2v-9.5zm0-13.9h8.6c3.4 0 5.5 .9 5.5 3.8s-2.4 4-5.3 4h-8.8v-7.8zm25.5 29.7h7v-26.6h-7v26.6zm7-36.2h-7v6.5h7v-6.5zm29.4 22.9c0-9.6-6.4-14-13.6-14s-13.6 4.4-13.6 14 6.4 14 13.6 14 13.6-4.4 13.6-14m-7.2 0c0 3.4-1 8.1-6.4 8.1s-6.4-4.7-6.4-8.1 1-8.1 6.4-8.1 6.4 4.7 6.4 8.1m17.3-22.6h-7v35.9h7v-35.9zm29.3 22.6c0-9.6-6.4-14-13.6-14s-13.6 4.4-13.6 14 6.4 14 13.6 14 13.6-4.4 13.6-14m-7.2 0c0 3.4-1 8.1-6.4 8.1s-6.4-4.7-6.4-8.1 1-8.1 6.4-8.1 6.4 4.7 6.4 8.1m28.3-13.3v4h-.1c-.8-1.8-2.8-4.7-7.8-4.7-5.9 0-11 4.5-11 13.7 0 9.3 5 13.8 11.4 13.8 4.2 0 6-1.9 7.1-4l0.1 .1v3.2c0 4.3-1.8 6.1-5.6 6.1-4 0-4.6-1.3-4.9-2.7h-7.6c0.3 5.7 6.1 8 11.6 8 13.1 0 13.5-7.7 13.5-12.2v-25.3h-6.7zm-11.7 13.5c0-6.2 2.9-8.1 5.5-8.1 3.9 0 6 3.5 6 7.8 0 3.7-1.2 7.7-5.9 7.7-4.2 0-5.6-4-5.6-7.4m47.3-13.5h-7.4l-5.5 19.6h-.1l-5.7-19.6h-7.8l9.8 27.7c-.6 3.7-2 4-4.6 4-.6 0-1-.1-1.4-.1v5.6c1 0 2.2 .1 3.2 .1 6.1 0 7-1.3 10.3-11.2l9.2-26.1z"/>
</svg>
