<svg xmlns="http://www.w3.org/2000/svg" height="56" viewBox="0 0 160 56" width="160" version="1.1" fill="#005789">
<path id="logo" d="m158.6 23.6c0-5.9-3.9-8.9-9.1-8.9-5 0-7 3-8 4.6h-.2v-3.9h-6.7v26.6h7v-15.2c0-4 2.4-6.1 5.5-6.1 4.4 0 4.5 3.3 4.5 5.2v16.1h7v-18.4zm-33.6 5.1c0 3.4-1 8.1-6.4 8.1s-6.4-4.7-6.4-8.1 1-8.1 6.4-8.1 6.4 4.7 6.4 8.1m7.2 0c0-9.6-6.5-14-13.6-14-7.2 0-13.6 4.4-13.6 14s6.5 14 13.6 14c7.2 0 13.6-4.4 13.6-14m-43.6 13.3h7v-13.8c0-2.9 1-6.3 6.5-6.3 .6 0 1.4 0 2 .1v-7.1c-.5-.1-.9-.1-1.4-.1-4.2 0-5.8 2.6-7.3 5.3h-.1v-4.7h-6.7v26.6zm-4-26.6h-7v15.3c0 4.8-3.1 6.1-5.4 6.1-2.1 0-4.5-.8-4.5-4.9v-16.5h-7v17.5c0 6.8 3.8 9.8 9 9.8 3.7 0 6.5-1.6 8.1-4.5h0.1v3.8h6.7v-26.6zm-44.2 10.6c0.4-3.5 2.1-5.6 5.5-5.6 2.2 0 5 1.3 5.4 5.6h-10.9zm10.5 8.2c-.5 1.9-2.5 2.9-4.5 2.9-5.6 0-6-4.5-6.2-6.5h18.2v-1.2c0-12.2-7.2-14.7-12.5-14.7-11.6 0-12.8 10.2-12.8 13.4 0 11 5.8 14.6 13.2 14.6 4.6 0 9.9-2.1 11.7-8.5h-7.1zm-26.7-3.1h-.1l-14.2-25h-7.9v35.9h7v-25.6h0.1l14.6 25.6h7.5v-35.9h-7v25z"/>
</svg>
